<?xml version="1.0" encoding="utf-8"?>
<!-- Generator: Adobe Illustrator 24.3.0, SVG Export Plug-In . SVG Version: 6.00 Build 0)  -->
<svg version="1.1" xmlns="http://www.w3.org/2000/svg" xmlns:xlink="http://www.w3.org/1999/xlink" x="0px" y="0px" viewBox="0 0 463 201" style="enable-background:new 0 0 463 201;" xml:space="preserve">
  <g class="fill-current text-red-500" id="presser">
    <g>
      <g>
        <path
                d="M166.6,103.4h-10.1v10.5h-6.7V78.2c5.6,0,11.2-0.1,16.8-0.1C184,78.2,184.1,103.4,166.6,103.4z M156.5,97.2h10.1
				c8.6,0,8.6-12.6,0-12.6h-10.1V97.2z"
        />
          <path
                  d="M215.9,113.9h-8L197.5,102H191v11.9h-6.7V78.2c5.7,0,11.3,0.1,17,0.1c8.4,0.1,12.9,5.7,12.9,11.8c0,4.9-2.2,9.8-9,11.2
				l10.8,12.2V113.9z M191,84.5v11.4h10.2c4.3,0,6.1-2.9,6.1-5.7c0-2.9-1.9-5.7-6.1-5.7H191z"
          />
          <path d="M245.3,113.9h-26.7c0-11.9,0-23.8,0-35.7h26.7v6.5h-20v8.2h19.3v6.3h-19.3v8.1h20V113.9z" />
          <path
                  d="M273.6,86.8c-1.2-2-4.6-4-8.5-4c-5,0-7.4,2.1-7.4,4.7c0,3.1,3.7,4,8,4.5c7.4,0.9,14.4,2.9,14.4,11.4c0,8-7,11.4-15,11.4
				c-7.3,0-12.9-2.2-15.6-8.8l5.6-2.9c1.6,3.9,5.7,5.7,10,5.7c4.2,0,8.2-1.5,8.2-5.4c0-3.4-3.5-4.7-8.3-5.3c-7.3-0.9-14-2.8-14-10.8
				c0-7.3,7.2-10.4,13.8-10.4c5.6,0,11.3,1.6,14,7.1L273.6,86.8z"
          />
          <path
                  d="M307.3,86.8c-1.2-2-4.6-4-8.5-4c-5,0-7.4,2.1-7.4,4.7c0,3.1,3.7,4,8,4.5c7.4,0.9,14.4,2.9,14.4,11.4c0,8-7,11.4-15,11.4
				c-7.3,0-12.9-2.2-15.6-8.8l5.6-2.9c1.6,3.9,5.7,5.7,10,5.7c4.2,0,8.2-1.5,8.2-5.4c0-3.4-3.5-4.7-8.3-5.3c-7.3-0.9-14-2.8-14-10.8
				c0-7.3,7.2-10.4,13.8-10.4c5.6,0,11.3,1.6,14,7.1L307.3,86.8z"
          />
          <path d="M345.6,113.9h-26.7c0-11.9,0-23.8,0-35.7h26.7v6.5h-20v8.2h19.3v6.3h-19.3v8.1h20V113.9z" />
          <path
                  d="M382.4,113.9h-8L364,102h-6.5v11.9h-6.7V78.2c5.7,0,11.3,0.1,17,0.1c8.4,0.1,12.9,5.7,12.9,11.8c0,4.9-2.2,9.8-9,11.2
				l10.8,12.2V113.9z M357.6,84.5v11.4h10.2c4.3,0,6.1-2.9,6.1-5.7c0-2.9-1.9-5.7-6.1-5.7H357.6z"
          />
      </g>
    </g>
  </g>
    <g class="fill-current text-yellow-500" id="slogan">
    <g>
      <path d="M155,127.5h-4.7v3.5h5.5v1.6h-7.4v-11.4h7.4v1.6h-5.4v3.1h4.7V127.5z" />
        <path d="M160.3,126.9l1.6-2.8h2.1l-2.6,4.2l2.7,4.3H162l-1.7-2.9l-1.7,2.9h-2.1l2.7-4.3l-2.6-4.2h2.1L160.3,126.9z" />
        <path
                d="M172.7,128.4c0,1.3-0.3,2.4-0.9,3.1s-1.4,1.2-2.4,1.2c-0.9,0-1.7-0.3-2.2-0.9v4h-1.9v-11.7h1.8l0.1,0.9
			c0.6-0.7,1.3-1,2.3-1c1,0,1.8,0.4,2.4,1.2s0.9,1.8,0.9,3.2V128.4z M170.8,128.3c0-0.8-0.2-1.5-0.5-2s-0.8-0.7-1.4-0.7
			c-0.8,0-1.3,0.3-1.7,1v3.8c0.3,0.7,0.9,1,1.7,1c0.6,0,1.1-0.2,1.4-0.7C170.6,130,170.8,129.3,170.8,128.3z"
        />
        <path
                d="M178.7,125.9c-0.2,0-0.5-0.1-0.8-0.1c-0.9,0-1.5,0.3-1.8,1v5.8h-1.9v-8.5h1.8l0,0.9c0.5-0.7,1.1-1.1,1.9-1.1
			c0.3,0,0.5,0,0.7,0.1L178.7,125.9z"
        />
        <path
                d="M183.5,132.7c-1.2,0-2.2-0.4-2.9-1.1c-0.7-0.8-1.1-1.8-1.1-3v-0.2c0-0.8,0.2-1.6,0.5-2.3c0.3-0.7,0.8-1.2,1.4-1.6
			c0.6-0.4,1.2-0.6,2-0.6c1.2,0,2,0.4,2.7,1.1c0.6,0.7,0.9,1.8,0.9,3.1v0.8h-5.5c0.1,0.7,0.3,1.2,0.7,1.7c0.4,0.4,0.9,0.6,1.5,0.6
			c0.9,0,1.6-0.4,2.1-1.1l1,1c-0.3,0.5-0.8,0.9-1.4,1.2C184.8,132.6,184.2,132.7,183.5,132.7z M183.3,125.5c-0.5,0-0.9,0.2-1.3,0.5
			s-0.5,0.9-0.6,1.5h3.6v-0.1c0-0.6-0.2-1.1-0.5-1.4S183.8,125.5,183.3,125.5z"
        />
        <path
                d="M193.1,130.3c0-0.3-0.1-0.6-0.4-0.8c-0.3-0.2-0.7-0.3-1.4-0.5c-0.6-0.1-1.2-0.3-1.6-0.5c-0.9-0.5-1.4-1.1-1.4-2
			c0-0.7,0.3-1.3,0.9-1.8c0.6-0.5,1.4-0.7,2.3-0.7c1,0,1.8,0.2,2.4,0.8c0.6,0.5,0.9,1.1,0.9,1.9H193c0-0.4-0.1-0.7-0.4-0.9
			c-0.3-0.2-0.6-0.4-1.1-0.4c-0.4,0-0.8,0.1-1,0.3c-0.3,0.2-0.4,0.5-0.4,0.8c0,0.3,0.1,0.5,0.4,0.7c0.2,0.2,0.7,0.3,1.5,0.5
			c0.7,0.2,1.3,0.4,1.8,0.6c0.4,0.2,0.7,0.5,0.9,0.8c0.2,0.3,0.3,0.7,0.3,1.2c0,0.8-0.3,1.4-0.9,1.8c-0.6,0.5-1.5,0.7-2.5,0.7
			c-0.7,0-1.3-0.1-1.9-0.4c-0.5-0.2-1-0.6-1.3-1c-0.3-0.4-0.5-0.9-0.5-1.4h1.8c0,0.4,0.2,0.8,0.5,1s0.7,0.4,1.2,0.4
			c0.5,0,0.9-0.1,1.1-0.3C193,130.8,193.1,130.6,193.1,130.3z"
        />
        <path
                d="M201.4,130.3c0-0.3-0.1-0.6-0.4-0.8c-0.3-0.2-0.7-0.3-1.4-0.5c-0.6-0.1-1.2-0.3-1.6-0.5c-0.9-0.5-1.4-1.1-1.4-2
			c0-0.7,0.3-1.3,0.9-1.8c0.6-0.5,1.4-0.7,2.3-0.7c1,0,1.8,0.2,2.4,0.8c0.6,0.5,0.9,1.1,0.9,1.9h-1.9c0-0.4-0.1-0.7-0.4-0.9
			c-0.3-0.2-0.6-0.4-1.1-0.4c-0.4,0-0.8,0.1-1,0.3c-0.3,0.2-0.4,0.5-0.4,0.8c0,0.3,0.1,0.5,0.4,0.7c0.2,0.2,0.7,0.3,1.5,0.5
			c0.7,0.2,1.3,0.4,1.8,0.6c0.4,0.2,0.7,0.5,0.9,0.8c0.2,0.3,0.3,0.7,0.3,1.2c0,0.8-0.3,1.4-0.9,1.8c-0.6,0.5-1.5,0.7-2.5,0.7
			c-0.7,0-1.3-0.1-1.9-0.4c-0.5-0.2-1-0.6-1.3-1c-0.3-0.4-0.5-0.9-0.5-1.4h1.8c0,0.4,0.2,0.8,0.5,1s0.7,0.4,1.2,0.4
			c0.5,0,0.9-0.1,1.1-0.3C201.2,130.8,201.4,130.6,201.4,130.3z"
        />
        <path
                d="M211.8,129.9l1.7-5.7h2l-3.4,9.7c-0.5,1.4-1.4,2.1-2.6,2.1c-0.3,0-0.6,0-0.9-0.1v-1.5l0.4,0c0.5,0,0.8-0.1,1.1-0.3
			c0.2-0.2,0.4-0.5,0.6-0.9l0.3-0.7l-3-8.4h2L211.8,129.9z"
        />
        <path
                d="M216.2,128.3c0-0.8,0.2-1.6,0.5-2.2s0.8-1.2,1.4-1.5s1.3-0.5,2-0.5c1.1,0,2.1,0.4,2.8,1.1s1.1,1.7,1.2,2.9l0,0.4
			c0,0.8-0.2,1.6-0.5,2.2s-0.8,1.2-1.4,1.5s-1.3,0.5-2.1,0.5c-1.2,0-2.1-0.4-2.9-1.2C216.5,130.8,216.2,129.7,216.2,128.3
			L216.2,128.3z M218.1,128.4c0,0.9,0.2,1.6,0.5,2s0.9,0.7,1.5,0.7s1.1-0.2,1.5-0.8s0.5-1.2,0.5-2.2c0-0.9-0.2-1.5-0.6-2
			s-0.9-0.8-1.5-0.8c-0.6,0-1.1,0.2-1.5,0.7S218.1,127.5,218.1,128.4z"
        />
        <path
                d="M230.8,131.8c-0.6,0.7-1.3,1-2.4,1c-0.9,0-1.6-0.3-2.1-0.8s-0.7-1.3-0.7-2.3v-5.5h1.9v5.5c0,1.1,0.4,1.6,1.3,1.6
			c0.9,0,1.5-0.3,1.9-1v-6.1h1.9v8.5h-1.8L230.8,131.8z"
        />
        <path
                d="M239,125.9c-0.2,0-0.5-0.1-0.8-0.1c-0.9,0-1.5,0.3-1.8,1v5.8h-1.9v-8.5h1.8l0,0.9c0.5-0.7,1.1-1.1,1.9-1.1
			c0.3,0,0.5,0,0.7,0.1L239,125.9z"
        />
        <path
                d="M244.9,130.3c0-0.3-0.1-0.6-0.4-0.8s-0.7-0.3-1.4-0.5s-1.2-0.3-1.6-0.5c-0.9-0.5-1.4-1.1-1.4-2c0-0.7,0.3-1.3,0.9-1.8
			s1.4-0.7,2.3-0.7c1,0,1.8,0.2,2.4,0.8s0.9,1.1,0.9,1.9h-1.9c0-0.4-0.1-0.7-0.4-0.9s-0.6-0.4-1.1-0.4c-0.4,0-0.8,0.1-1,0.3
			s-0.4,0.5-0.4,0.8c0,0.3,0.1,0.5,0.4,0.7s0.7,0.3,1.5,0.5s1.3,0.4,1.8,0.6s0.7,0.5,0.9,0.8s0.3,0.7,0.3,1.2c0,0.8-0.3,1.4-0.9,1.8
			s-1.5,0.7-2.5,0.7c-0.7,0-1.3-0.1-1.9-0.4s-1-0.6-1.3-1s-0.5-0.9-0.5-1.4h1.8c0,0.4,0.2,0.8,0.5,1s0.7,0.4,1.2,0.4
			c0.5,0,0.9-0.1,1.1-0.3S244.9,130.6,244.9,130.3z"
        />
        <path
                d="M252.1,132.7c-1.2,0-2.2-0.4-2.9-1.1s-1.1-1.8-1.1-3v-0.2c0-0.8,0.2-1.6,0.5-2.3s0.8-1.2,1.4-1.6s1.2-0.6,2-0.6
			c1.2,0,2,0.4,2.7,1.1s0.9,1.8,0.9,3.1v0.8H250c0.1,0.7,0.3,1.2,0.7,1.7s0.9,0.6,1.5,0.6c0.9,0,1.6-0.4,2.1-1.1l1,1
			c-0.3,0.5-0.8,0.9-1.4,1.2S252.9,132.7,252.1,132.7z M251.9,125.5c-0.5,0-0.9,0.2-1.3,0.5s-0.5,0.9-0.6,1.5h3.6v-0.1
			c0-0.6-0.2-1.1-0.5-1.4S252.4,125.5,251.9,125.5z"
        />
        <path d="M259,132.6h-1.9v-12h1.9V132.6z" />
        <path
                d="M261.8,132.6v-7h-1.3v-1.4h1.3v-0.8c0-0.9,0.3-1.7,0.8-2.2c0.5-0.5,1.2-0.8,2.2-0.8c0.3,0,0.7,0,1.1,0.1l0,1.5
			c-0.2,0-0.5-0.1-0.7-0.1c-0.9,0-1.4,0.5-1.4,1.4v0.8h1.7v1.4h-1.7v7H261.8z"
        />
        <path
                d="M272.5,124.1l0.1,0.9c0.6-0.7,1.4-1,2.4-1c1.1,0,1.9,0.4,2.3,1.3c0.6-0.9,1.5-1.3,2.6-1.3c0.9,0,1.6,0.3,2.1,0.8
			s0.7,1.3,0.7,2.3v5.6h-1.9v-5.5c0-0.5-0.1-0.9-0.4-1.2s-0.6-0.4-1.2-0.4c-0.4,0-0.8,0.1-1.1,0.3s-0.5,0.5-0.6,0.9l0,5.8h-1.9V127
			c0-1-0.5-1.5-1.5-1.5c-0.8,0-1.3,0.3-1.6,0.9v6.1h-1.9v-8.5H272.5z"
        />
        <path
                d="M284.3,128.3c0-0.8,0.2-1.6,0.5-2.2s0.8-1.2,1.4-1.5s1.3-0.5,2-0.5c1.1,0,2.1,0.4,2.8,1.1s1.1,1.7,1.2,2.9l0,0.4
			c0,0.8-0.2,1.6-0.5,2.2s-0.8,1.2-1.4,1.5s-1.3,0.5-2.1,0.5c-1.2,0-2.1-0.4-2.9-1.2S284.3,129.7,284.3,128.3L284.3,128.3z
			 M286.2,128.4c0,0.9,0.2,1.6,0.5,2s0.9,0.7,1.5,0.7s1.1-0.2,1.5-0.8s0.5-1.2,0.5-2.2c0-0.9-0.2-1.5-0.6-2s-0.9-0.8-1.5-0.8
			c-0.6,0-1.1,0.2-1.5,0.7S286.2,127.5,286.2,128.4z"
        />
        <path
                d="M298.2,125.9c-0.2,0-0.5-0.1-0.8-0.1c-0.9,0-1.5,0.3-1.8,1v5.8h-1.9v-8.5h1.8l0,0.9c0.5-0.7,1.1-1.1,1.9-1.1
			c0.3,0,0.5,0,0.7,0.1L298.2,125.9z"
        />
        <path
                d="M303,132.7c-1.2,0-2.2-0.4-2.9-1.1s-1.1-1.8-1.1-3v-0.2c0-0.8,0.2-1.6,0.5-2.3s0.8-1.2,1.4-1.6s1.2-0.6,2-0.6
			c1.2,0,2,0.4,2.7,1.1s0.9,1.8,0.9,3.1v0.8h-5.5c0.1,0.7,0.3,1.2,0.7,1.7s0.9,0.6,1.5,0.6c0.9,0,1.6-0.4,2.1-1.1l1,1
			c-0.3,0.5-0.8,0.9-1.4,1.2S303.7,132.7,303,132.7z M302.8,125.5c-0.5,0-0.9,0.2-1.3,0.5s-0.5,0.9-0.6,1.5h3.6v-0.1
			c0-0.6-0.2-1.1-0.5-1.4S303.3,125.5,302.8,125.5z"
        />
        <path
                d="M309,130.6c0.4,0,0.6,0.1,0.8,0.3s0.3,0.5,0.3,0.8c0,0.3-0.1,0.5-0.3,0.7s-0.5,0.3-0.8,0.3c-0.3,0-0.6-0.1-0.8-0.3
			s-0.3-0.4-0.3-0.7s0.1-0.6,0.3-0.8S308.7,130.6,309,130.6z"
        />
        <path
                d="M313.5,130.6c0.4,0,0.6,0.1,0.8,0.3s0.3,0.5,0.3,0.8c0,0.3-0.1,0.5-0.3,0.7s-0.5,0.3-0.8,0.3c-0.3,0-0.6-0.1-0.8-0.3
			s-0.3-0.4-0.3-0.7s0.1-0.6,0.3-0.8S313.2,130.6,313.5,130.6z"
        />
        <path
                d="M318,130.6c0.4,0,0.6,0.1,0.8,0.3s0.3,0.5,0.3,0.8c0,0.3-0.1,0.5-0.3,0.7s-0.5,0.3-0.8,0.3c-0.3,0-0.6-0.1-0.8-0.3
			s-0.3-0.4-0.3-0.7s0.1-0.6,0.3-0.8S317.6,130.6,318,130.6z"
        />
    </g>
  </g>
    <g class="fill-current text-blue-500" id="logo">
    <g>
      <polygon points="85.1,101.3 69.1,117.4 35.3,151.1 35.3,119 53,101.3 5.3,53.6 5.3,21.5 		" />
        <polygon points="179.6,6.8 116.2,70.2 100.1,86.3 50.9,37.1 83.1,37.1 100.1,54.1 147.4,6.8 		" />
        <polygon points="148.8,165 116.7,165 100.1,148.4 55.2,193.3 23.1,193.3 100.1,116.3 116.2,132.3 		" />
    </g>
  </g>
    <g class="fill-current text-green-500" id="js">
    <g>
      <path
              d="M422.8,98.7c0,9.2-5.9,16-15.7,16c-9.1,0-15.7-5.5-15.7-15.6h6.6c0,6.1,3,9.2,9,9.2c6.1,0,9-4.2,9-9.6V84.5h-10.8v-6.3
			c5.8,0,11.6,0,17.5,0V98.7z"
      />
        <path
                d="M451.1,86.8c-1.2-2-4.6-4-8.5-4c-5,0-7.4,2.1-7.4,4.7c0,3.1,3.7,4,8,4.5c7.4,0.9,14.4,2.9,14.4,11.4c0,8-7,11.4-15,11.4
			c-7.3,0-12.9-2.2-15.6-8.8l5.6-2.9c1.6,3.9,5.7,5.7,10,5.7c4.2,0,8.2-1.5,8.2-5.4c0-3.4-3.5-4.7-8.3-5.3c-7.3-0.9-14-2.8-14-10.8
			c0-7.3,7.2-10.4,13.8-10.4c5.6,0,11.3,1.6,14,7.1L451.1,86.8z"
        />
    </g>
  </g>
</svg>